<svg width="56" height="56" viewBox="0 0 56 56" fill="none" xmlns="http://www.w3.org/2000/svg">
<path opacity="0.34" d="M34.9755 31.009H3.5V55.9954H34.9755V31.009Z" fill="#1363DF"/>
<path d="M17.4289 23.6724H42.5538C47.2186 23.6724 50.9827 27.4596 50.9827 32.1012V43.6707H9V32.1012C9 27.4365 12.7872 23.6724 17.4289 23.6724Z" fill="white"/>
<path fill-rule="evenodd" clip-rule="evenodd" d="M17.0637 24.442C12.8457 24.442 9.40439 27.8629 9.40439 32.1013V42.9012H49.8479V32.1013C49.8479 27.8833 46.427 24.442 42.1886 24.442H17.0637ZM7.86523 32.1013C7.86523 27.0101 11.9984 22.9028 17.0637 22.9028H42.1886C47.2798 22.9028 51.3871 27.036 51.3871 32.1013V43.6708C51.3871 44.0958 51.0425 44.4403 50.6175 44.4403H8.63481C8.20979 44.4403 7.86523 44.0958 7.86523 43.6708V32.1013Z" fill="#0C0E1E"/>
<path fill-rule="evenodd" clip-rule="evenodd" d="M15.1442 13.2738C15.1441 13.2742 15.1443 13.2733 15.1442 13.2738L13.2511 24.4248C13.1799 24.8438 12.7826 25.1258 12.3635 25.0547C11.9445 24.9836 11.6625 24.5862 11.7336 24.1672L13.6277 13.0106C14.1836 9.80759 17.1483 7.5 20.5748 7.5H37.5942C41.0179 7.5 43.9856 9.78209 44.5415 13.0116L44.5418 13.0133L46.4354 24.1672C46.5065 24.5862 46.2245 24.9836 45.8055 25.0547C45.3865 25.1258 44.9891 24.8438 44.918 24.4248L43.0247 13.2727C43.0246 13.2724 43.0247 13.273 43.0247 13.2727C42.6103 10.868 40.359 9.03916 37.5942 9.03916H20.5748C17.8131 9.03916 15.5588 10.8889 15.1442 13.2738Z" fill="#0C0E1E"/>
<path fill-rule="evenodd" clip-rule="evenodd" d="M7.6582 19.5157C7.6582 19.0906 8.00276 18.7461 8.42778 18.7461H13.0925C13.5175 18.7461 13.8621 19.0906 13.8621 19.5157C13.8621 19.9407 13.5175 20.2853 13.0925 20.2853H8.42778C8.00276 20.2853 7.6582 19.9407 7.6582 19.5157Z" fill="#0C0E1E"/>
<path fill-rule="evenodd" clip-rule="evenodd" d="M44.2842 19.3541C44.2842 18.929 44.6287 18.5845 45.0538 18.5845H49.7185C50.1435 18.5845 50.4881 18.929 50.4881 19.3541C50.4881 19.7791 50.1435 20.1236 49.7185 20.1236H45.0538C44.6287 20.1236 44.2842 19.7791 44.2842 19.3541Z" fill="#0C0E1E"/>
<path d="M36.4843 35.3342H22.3516V39.3062H36.4843V35.3342Z" fill="#1363DF"/>
<path d="M14.6856 40.761H13.6002C12.2866 40.761 11.2217 41.8259 11.2217 43.1395V49.3053C11.2217 50.619 12.2866 51.6839 13.6002 51.6839H14.6856C15.9992 51.6839 17.0642 50.619 17.0642 49.3053V43.1395C17.0642 41.8259 15.9992 40.761 14.6856 40.761Z" fill="white"/>
<path fill-rule="evenodd" clip-rule="evenodd" d="M13.6003 41.5306C12.7117 41.5306 11.9913 42.251 11.9913 43.1396V49.3054C11.9913 50.194 12.7117 50.9143 13.6003 50.9143H14.6856C15.5743 50.9143 16.2946 50.194 16.2946 49.3054V43.1396C16.2946 42.251 15.5743 41.5306 14.6856 41.5306H13.6003ZM10.4521 43.1396C10.4521 41.4009 11.8616 39.9915 13.6003 39.9915H14.6856C16.4243 39.9915 17.8338 41.4009 17.8338 43.1396V49.3054C17.8338 51.044 16.4243 52.4535 14.6856 52.4535H13.6003C11.8616 52.4535 10.4521 51.044 10.4521 49.3054V43.1396Z" fill="#0C0E1E"/>
<path d="M45.584 40.9919H44.4987C43.185 40.9919 42.1201 42.0569 42.1201 43.3705V49.5363C42.1201 50.8499 43.185 51.9148 44.4987 51.9148H45.584C46.8977 51.9148 47.9626 50.8499 47.9626 49.5363V43.3705C47.9626 42.0569 46.8977 40.9919 45.584 40.9919Z" fill="white"/>
<path fill-rule="evenodd" clip-rule="evenodd" d="M44.4987 41.7616C43.6101 41.7616 42.8897 42.4819 42.8897 43.3705V49.5363C42.8897 50.4249 43.6101 51.1453 44.4987 51.1453H45.5841C46.4727 51.1453 47.1931 50.4249 47.1931 49.5363V43.3705C47.1931 42.4819 46.4727 41.7616 45.5841 41.7616H44.4987ZM41.3506 43.3705C41.3506 41.6319 42.76 40.2224 44.4987 40.2224H45.5841C47.3228 40.2224 48.7322 41.6319 48.7322 43.3705V49.5363C48.7322 51.275 47.3228 52.6845 45.5841 52.6845H44.4987C42.7601 52.6845 41.3506 51.275 41.3506 49.5363V43.3705Z" fill="#0C0E1E"/>
<path d="M25.0077 3H34.9923C36.1034 3 37 3.94688 37 5.10739V7H23V5.10739C23 3.94111 23.9021 3 25.0077 3Z" fill="#1363DF"/>
</svg>
