<svg width="77" height="22" viewBox="0 0 77 22" fill="none" xmlns="http://www.w3.org/2000/svg">
<g clip-path="url(#clip0_1810_35500)">
<path d="M4.75895 0.00146484L0.923828 8.9226H3.42069L4.12832 7.13618H8.24208L8.94605 8.9226H11.4979L7.66645 0.00146484H4.75895ZM6.17787 2.07768L7.4318 5.19936H4.92027L6.17787 2.07768Z" fill="#016FD0"/>
<path d="M11.7617 8.92114V0L15.3099 0.0131872L17.3736 5.76497L19.388 0H22.9078V8.92114H20.6786V2.34767L18.3155 8.92114H16.3605L13.9909 2.34767V8.92114H11.7617Z" fill="#016FD0"/>
<path d="M24.4336 8.92114V0H31.7079V1.99552H26.6863V3.5215H31.5905V5.39964H26.6863V6.98432H31.7079V8.92114H24.4336Z" fill="#016FD0"/>
<path d="M32.998 0.00158691V8.92272H35.2273V5.75337H36.1659L38.8387 8.92272H41.5629L38.6297 5.63599C39.8335 5.53436 41.0753 4.50067 41.0753 2.89583C41.0753 1.01851 39.6025 0.00158691 37.9588 0.00158691H32.998ZM35.2273 1.9971H37.7754C38.3867 1.9971 38.8314 2.47549 38.8314 2.93617C38.8314 3.52885 38.2553 3.87524 37.8084 3.87524H35.2273V1.9971Z" fill="#016FD0"/>
<path d="M44.2605 8.92114H41.9844V0H44.2605V8.92114Z" fill="#016FD0"/>
<path d="M49.6575 8.92114H49.1662C46.789 8.92114 45.3457 7.04742 45.3457 4.49725C45.3457 1.88409 46.7728 0 49.7748 0H52.2387V2.1129H49.6847C48.4661 2.1129 47.6042 3.06437 47.6042 4.51926C47.6042 6.24695 48.5897 6.97258 50.0094 6.97258H50.5961L49.6575 8.92114Z" fill="#016FD0"/>
<path d="M54.5089 0.00158691L50.6738 8.92272H53.1707L53.8783 7.1363H57.9921L58.696 8.92272H61.2479L57.4165 0.00158691H54.5089ZM55.9279 2.0778L57.1818 5.19948H54.6703L55.9279 2.0778Z" fill="#016FD0"/>
<path d="M61.5078 8.92114V0H64.342L67.9608 5.60506V0H70.19V8.92114H67.4475L63.737 3.16935V8.92114H61.5078Z" fill="#016FD0"/>
<path d="M17.1602 21.9984V13.0773H24.4344V15.0728H19.4128V16.5988H24.3171V18.4769H19.4128V20.0616H24.4344V21.9984H17.1602Z" fill="#016FD0"/>
<path d="M52.8047 21.9984V13.0773H60.0789V15.0728H55.0574V16.5988H59.9382V18.4769H55.0574V20.0616H60.0789V21.9984H52.8047Z" fill="#016FD0"/>
<path d="M24.7171 21.9984L28.2589 17.5929L24.6328 13.0773H27.4413L29.6009 15.8688L31.7677 13.0773H34.4663L30.8878 17.5378L34.4361 21.9984H31.6281L29.5312 19.2509L27.4853 21.9984H24.7171Z" fill="#016FD0"/>
<path d="M34.7012 13.0789V22H36.989V19.1828H39.3356C41.3211 19.1828 42.826 18.1289 42.826 16.0795C42.826 14.3817 41.6457 13.0789 39.6252 13.0789H34.7012ZM36.989 15.0964H39.4602C40.1017 15.0964 40.5602 15.4897 40.5602 16.1235C40.5602 16.7189 40.104 17.1506 39.4529 17.1506H36.989V15.0964Z" fill="#016FD0"/>
<path d="M43.793 13.0773V21.9984H46.0222V18.8291H46.9608L49.6336 21.9984H52.3578L49.4247 18.7117C50.6284 18.61 51.8702 17.5764 51.8702 15.9715C51.8702 14.0942 50.3974 13.0773 48.7537 13.0773H43.793ZM46.0222 15.0728H48.5704C49.1816 15.0728 49.6263 15.5512 49.6263 16.0119C49.6263 16.6045 49.0502 16.9509 48.6034 16.9509H46.0222V15.0728Z" fill="#016FD0"/>
<path d="M61.1112 21.9984V20.0616H65.5725C66.2326 20.0616 66.5185 19.7047 66.5185 19.3133C66.5185 18.9382 66.2336 18.5591 65.5725 18.5591H63.5565C61.8041 18.5591 60.8281 17.4909 60.8281 15.8871C60.8281 14.4567 61.7219 13.0773 64.3259 13.0773H68.667L67.7284 15.0845H63.974C63.2563 15.0845 63.0353 15.4613 63.0353 15.8211C63.0353 16.1909 63.3083 16.5988 63.8566 16.5988H65.9685C67.922 16.5988 68.7697 17.7074 68.7697 19.1592C68.7697 20.72 67.8251 21.9984 65.8622 21.9984H61.1112Z" fill="#016FD0"/>
<path d="M69.2928 21.9984V20.0616H73.7542C74.4143 20.0616 74.7001 19.7047 74.7001 19.3133C74.7001 18.9382 74.4152 18.5591 73.7542 18.5591H71.7381C69.9857 18.5591 69.0098 17.4909 69.0098 15.8871C69.0098 14.4567 69.9035 13.0773 72.5076 13.0773H76.8487L75.91 15.0845H72.1556C71.4379 15.0845 71.217 15.4613 71.217 15.8211C71.217 16.1909 71.49 16.5988 72.0383 16.5988H74.1501C76.1037 16.5988 76.9513 17.7074 76.9513 19.1592C76.9513 20.72 76.0067 21.9984 74.0438 21.9984H69.2928Z" fill="#016FD0"/>
</g>
<defs>
<clipPath id="clip0_1810_35500">
<rect width="76.0261" height="22" fill="white" transform="translate(0.923828)"/>
</clipPath>
</defs>
</svg>
