<svg width="32" height="32" viewBox="0 0 32 32" fill="none" xmlns="http://www.w3.org/2000/svg">
<path opacity="0.34" d="M20.6371 13.0874H5V31.6408H20.6371V13.0874Z" fill="#1363DF"/>
<path fill-rule="evenodd" clip-rule="evenodd" d="M8.22852 4.58924C8.22852 4.34637 8.4254 4.14948 8.66827 4.14948H15.319C15.5619 4.14948 15.7588 4.34637 15.7588 4.58924C15.7588 4.83211 15.5619 5.029 15.319 5.029H8.66827C8.4254 5.029 8.22852 4.83211 8.22852 4.58924Z" fill="#0C0E1E"/>
<path fill-rule="evenodd" clip-rule="evenodd" d="M20.3906 4.58924C20.3906 4.33665 20.5954 4.13189 20.848 4.13189H27.4987C27.7513 4.13189 27.956 4.33665 27.956 4.58924C27.956 4.84183 27.7513 5.04659 27.4987 5.04659H20.848C20.5954 5.04659 20.3906 4.84183 20.3906 4.58924Z" fill="#0C0E1E"/>
<path d="M9.51367 9.49812H25.771V20.4375C25.771 23.3802 23.3825 25.7554 20.4531 25.7554H14.8316C11.8889 25.7554 9.51367 23.367 9.51367 20.4375V9.49812Z" fill="white"/>
<path fill-rule="evenodd" clip-rule="evenodd" d="M9.07422 9.49812C9.07422 9.25525 9.27111 9.05836 9.51398 9.05836H25.7713C26.0142 9.05836 26.2111 9.25525 26.2111 9.49812V20.4375C26.2111 23.6238 23.625 26.1952 20.4534 26.1952H14.8319C11.6457 26.1952 9.07422 23.6092 9.07422 20.4375V9.49812ZM9.95374 9.93788V20.4375C9.95374 23.1248 12.1328 25.3157 14.8319 25.3157H20.4534C23.1407 25.3157 25.3315 23.1366 25.3315 20.4375V9.93788H9.95374Z" fill="#0C0E1E"/>
<path d="M17.8658 20.0944H17.4171C16.1782 20.0944 15.1738 21.0988 15.1738 22.3377V28.5794C15.1738 29.8183 16.1782 30.8227 17.4171 30.8227H17.8658C19.1047 30.8227 20.1091 29.8183 20.1091 28.5794V22.3377C20.1091 21.0988 19.1047 20.0944 17.8658 20.0944Z" fill="white"/>
<path fill-rule="evenodd" clip-rule="evenodd" d="M17.4174 20.5342C16.4214 20.5342 15.6139 21.3416 15.6139 22.3377V28.5794C15.6139 29.5754 16.4214 30.3829 17.4174 30.3829H17.8661C18.8622 30.3829 19.6696 29.5754 19.6696 28.5794V22.3377C19.6696 21.3416 18.8622 20.5342 17.8661 20.5342H17.4174ZM14.7344 22.3377C14.7344 20.8559 15.9356 19.6547 17.4174 19.6547H17.8661C19.3479 19.6547 20.5492 20.8559 20.5492 22.3377V28.5794C20.5492 30.0612 19.3479 31.2624 17.8661 31.2624H17.4174C15.9356 31.2624 14.7344 30.0612 14.7344 28.5794V22.3377Z" fill="#0C0E1E"/>
<path d="M17.971 7.91462C19.8804 7.91462 21.4283 6.36673 21.4283 4.4573C21.4283 2.54788 19.8804 0.999985 17.971 0.999985C16.0616 0.999985 14.5137 2.54788 14.5137 4.4573C14.5137 6.36673 16.0616 7.91462 17.971 7.91462Z" fill="#1363DF"/>
</svg>
