<svg width="32" height="32" viewBox="0 0 32 32" fill="none" xmlns="http://www.w3.org/2000/svg">
<path opacity="0.34" d="M19.986 16.0051H2V30.2831H19.986V16.0051Z" fill="#1363DF"/>
<path d="M10.8946 11.2414H25.2517C27.9173 11.2414 30.0682 13.4055 30.0682 16.0579V22.6691H6.07812V16.0579C6.07812 13.3924 8.24225 11.2414 10.8946 11.2414Z" fill="white"/>
<path fill-rule="evenodd" clip-rule="evenodd" d="M10.893 11.6812C8.48269 11.6812 6.51624 13.636 6.51624 16.0579V22.2293H29.6268V16.0579C29.6268 13.6476 27.672 11.6812 25.2501 11.6812H10.893ZM5.63672 16.0579C5.63672 13.1487 7.99851 10.8017 10.893 10.8017H25.2501C28.1593 10.8017 30.5063 13.1635 30.5063 16.0579V22.6691C30.5063 22.9119 30.3095 23.1088 30.0666 23.1088H6.07648C5.83361 23.1088 5.63672 22.9119 5.63672 22.6691V16.0579Z" fill="#0C0E1E"/>
<path fill-rule="evenodd" clip-rule="evenodd" d="M9.79697 5.29929C9.79692 5.29955 9.79701 5.29903 9.79697 5.29929L8.71518 11.6713C8.67453 11.9107 8.44747 12.0719 8.20802 12.0313C7.96857 11.9906 7.80742 11.7635 7.84807 11.5241L8.9304 5.14889C9.24805 3.31862 10.9421 2 12.9002 2H22.6255C24.582 2 26.2778 3.30405 26.5954 5.14949L26.5956 5.15048L27.6777 11.5241C27.7183 11.7635 27.5571 11.9906 27.3177 12.0313C27.0783 12.0719 26.8512 11.9107 26.8105 11.6713L25.7287 5.29869C25.7286 5.29854 25.7287 5.29884 25.7287 5.29869C25.4919 3.92455 24.2054 2.87952 22.6255 2.87952H12.9002C11.322 2.87952 10.0339 3.93653 9.79697 5.29929Z" fill="#0C0E1E"/>
<path fill-rule="evenodd" clip-rule="evenodd" d="M5.51953 8.86617C5.51953 8.62329 5.71642 8.42641 5.95929 8.42641H8.62486C8.86773 8.42641 9.06462 8.62329 9.06462 8.86617C9.06462 9.10904 8.86773 9.30592 8.62486 9.30592H5.95929C5.71642 9.30592 5.51953 9.10904 5.51953 8.86617Z" fill="#0C0E1E"/>
<path fill-rule="evenodd" clip-rule="evenodd" d="M26.4492 8.77379C26.4492 8.53092 26.6461 8.33403 26.889 8.33403H29.5545C29.7974 8.33403 29.9943 8.53092 29.9943 8.77379C29.9943 9.01666 29.7974 9.21355 29.5545 9.21355H26.889C26.6461 9.21355 26.4492 9.01666 26.4492 8.77379Z" fill="#0C0E1E"/>
<path d="M21.9919 17.9053H13.916V20.175H21.9919V17.9053Z" fill="#1363DF"/>
<path d="M9.53407 21.0064H8.91386C8.16321 21.0064 7.55469 21.6149 7.55469 22.3655V25.8888C7.55469 26.6395 8.16321 27.248 8.91386 27.248H9.53407C10.2847 27.248 10.8932 26.6395 10.8932 25.8888V22.3655C10.8932 21.6149 10.2847 21.0064 9.53407 21.0064Z" fill="white"/>
<path fill-rule="evenodd" clip-rule="evenodd" d="M8.91417 21.4461C8.40639 21.4461 7.99475 21.8578 7.99475 22.3655V25.8888C7.99475 26.3966 8.40639 26.8083 8.91417 26.8083H9.53437C10.0422 26.8083 10.4538 26.3966 10.4538 25.8888V22.3655C10.4538 21.8578 10.0422 21.4461 9.53437 21.4461H8.91417ZM7.11523 22.3655C7.11523 21.372 7.92064 20.5666 8.91417 20.5666H9.53437C10.5279 20.5666 11.3333 21.372 11.3333 22.3655V25.8888C11.3333 26.8824 10.5279 27.6878 9.53437 27.6878H8.91417C7.92065 27.6878 7.11523 26.8824 7.11523 25.8888V22.3655Z" fill="#0C0E1E"/>
<path d="M27.1903 21.1384H26.5701C25.8195 21.1384 25.2109 21.7469 25.2109 22.4975V26.0208C25.2109 26.7715 25.8195 27.38 26.5701 27.38H27.1903C27.941 27.38 28.5495 26.7715 28.5495 26.0208V22.4975C28.5495 21.7469 27.941 21.1384 27.1903 21.1384Z" fill="white"/>
<path fill-rule="evenodd" clip-rule="evenodd" d="M26.5704 21.5781C26.0626 21.5781 25.651 21.9898 25.651 22.4975V26.0208C25.651 26.5286 26.0626 26.9403 26.5704 26.9403H27.1906C27.6984 26.9403 28.11 26.5286 28.11 26.0208V22.4975C28.11 21.9898 27.6984 21.5781 27.1906 21.5781H26.5704ZM24.7715 22.4975C24.7715 21.504 25.5769 20.6986 26.5704 20.6986H27.1906C28.1841 20.6986 28.9896 21.504 28.9896 22.4975V26.0208C28.9896 27.0144 28.1841 27.8198 27.1906 27.8198H26.5704C25.5769 27.8198 24.7715 27.0144 24.7715 26.0208V22.4975Z" fill="#0C0E1E"/>
</svg>
