<svg width="20" height="20" viewBox="0 0 20 20" fill="none" xmlns="http://www.w3.org/2000/svg">
<path fill-rule="evenodd" clip-rule="evenodd" d="M6.02397 13.9776C5.7799 13.7335 5.7799 13.3378 6.02397 13.0937L13.095 6.02264C13.3391 5.77856 13.7348 5.77856 13.9789 6.02264C14.223 6.26671 14.223 6.66244 13.9789 6.90652L6.90786 13.9776C6.66378 14.2217 6.26805 14.2217 6.02397 13.9776Z" fill="#0C0E1E"/>
<path fill-rule="evenodd" clip-rule="evenodd" d="M6.02397 6.02241C6.26805 5.77834 6.66378 5.77834 6.90786 6.02241L13.9789 13.0935C14.223 13.3376 14.223 13.7333 13.9789 13.9774C13.7348 14.2214 13.3391 14.2214 13.095 13.9774L6.02397 6.9063C5.7799 6.66222 5.7799 6.26649 6.02397 6.02241Z" fill="#0C0E1E"/>
</svg>
