<svg width="32" height="26" viewBox="0 0 32 26" fill="none" xmlns="http://www.w3.org/2000/svg">
<path d="M18.0583 24.8054C24.7348 24.838 30.8252 19.2758 30.8252 12.5107C30.8252 5.11359 24.7308 -0.00407538 18.0583 2.43518e-06H12.3132C5.56041 -0.00407538 0 5.11359 0 12.5107C0 19.2799 5.56041 24.838 12.3132 24.8054H18.0583Z" fill="#0079BE"/>
<path d="M12.3411 1.02356C6.17044 1.02356 1.16808 6.1086 1.16406 12.3803C1.16406 18.652 6.16643 23.7329 12.3411 23.7329C18.5158 23.7329 23.5181 18.6479 23.5181 12.3803C23.5181 6.1086 18.5158 1.02764 12.3411 1.02356ZM5.2591 12.3803C5.26311 9.31376 7.15004 6.69988 9.80779 5.66412V19.0965C7.15004 18.0607 5.26311 15.4468 5.2591 12.3803ZM14.8784 19.1005V5.66412C17.5362 6.69988 19.4231 9.31376 19.4271 12.3803C19.4231 15.4468 17.5362 18.0607 14.8784 19.1005Z" fill="white"/>
<path d="M18.0583 24.8054C24.7348 24.838 30.8252 19.2758 30.8252 12.5107C30.8252 5.11359 24.7308 -0.00407538 18.0583 2.43518e-06H12.3132C5.56041 -0.00407538 0 5.11359 0 12.5107C0 19.2799 5.56041 24.838 12.3132 24.8054H18.0583Z" fill="#0079BE"/>
<path d="M12.3411 1.02356C6.17044 1.02356 1.16808 6.1086 1.16406 12.3803C1.16406 18.652 6.16643 23.7329 12.3411 23.7329C18.5158 23.7329 23.5181 18.6479 23.5181 12.3803C23.5181 6.1086 18.5158 1.02764 12.3411 1.02356ZM5.2591 12.3803C5.26311 9.31376 7.15004 6.69988 9.80779 5.66412V19.0965C7.15004 18.0607 5.26311 15.4468 5.2591 12.3803ZM14.8784 19.1005V5.66412C17.5362 6.69988 19.4231 9.31376 19.4271 12.3803C19.4231 15.4468 17.5362 18.0607 14.8784 19.1005Z" fill="white"/>
</svg>
