<svg width="85" height="14" viewBox="0 0 85 14" fill="none" xmlns="http://www.w3.org/2000/svg">
<g clip-path="url(#clip0_1810_35476)">
<path d="M4.20809 0.310791H0.416016V13.5357H4.15589C6.15447 13.5357 7.59002 13.0714 8.87269 11.9931C10.3604 10.7574 11.2814 8.85532 11.2814 6.89704C11.2814 3.03665 8.36186 0.310791 4.20809 0.310791ZM7.18359 10.2445C6.36328 10.9634 5.33789 11.2741 3.64879 11.2741H2.98135V2.52368H3.64879C5.28942 2.52368 6.31481 2.83072 7.18359 3.60579C8.10458 4.42954 8.61914 5.66516 8.61914 6.90079C8.61541 8.18509 8.10458 9.46939 7.18359 10.2445Z" fill="black"/>
<path d="M15.0206 0.310791H12.459V13.5357H15.0206V0.310791Z" fill="black"/>
<path d="M21.3262 5.35444C19.79 4.78905 19.3276 4.4296 19.3276 3.70694C19.3276 2.88319 20.1479 2.26538 21.2255 2.26538C21.9936 2.26538 22.6088 2.57242 23.3285 3.34749L24.6596 1.54647C23.5336 0.569207 22.2509 0.0524902 20.7631 0.0524902C18.4066 0.0524902 16.6616 1.69999 16.6616 3.86046C16.6616 5.7139 17.4819 6.63874 19.8906 7.51491C20.916 7.87437 21.4268 8.13273 21.6841 8.28624C22.195 8.59328 22.4522 9.10999 22.4522 9.67539C22.4522 10.7575 21.5797 11.5288 20.4537 11.5288C19.2232 11.5288 18.25 10.911 17.6348 9.78023L15.9941 11.3229C17.1724 13.0715 18.608 13.8428 20.5543 13.8428C23.2204 13.8428 25.1145 12.0418 25.1145 9.46945C25.1183 7.41382 24.2495 6.43655 21.3262 5.35444Z" fill="black"/>
<path d="M25.9395 6.94949C25.9395 10.8623 28.9634 13.8465 32.9084 13.8465C34.0344 13.8465 34.9592 13.6406 36.1374 13.0752V10.0386C35.112 11.0682 34.1911 11.4801 33.0128 11.4801C30.399 11.4801 28.6055 9.57426 28.6055 6.90082C28.6055 4.38089 30.5034 2.3702 32.9121 2.3702C34.1426 2.3702 35.0636 2.78207 36.1412 3.86418V0.827537C35.0151 0.262145 34.0904 0.00378758 32.9643 0.00378758C29.0678 4.32634e-05 25.9395 3.0891 25.9395 6.94949Z" fill="black"/>
<path d="M56.9458 9.21478L53.4595 0.310791H50.6406L56.2262 13.8989H57.6133L63.2995 0.310791H60.5328L56.9458 9.21478Z" fill="black"/>
<path d="M64.4785 13.5357H71.7569V11.3228H67.0439V7.72079H71.604V5.45548H67.0439V2.52368H71.7569V0.310791H64.4785V13.5357Z" fill="black"/>
<path d="M81.9544 4.21982C81.9544 1.74857 80.2615 0.307007 77.2898 0.307007H73.4492V13.5319H76.0108V8.23747H76.3688L79.9036 13.5394H83.0804L78.9304 7.97911C80.8805 7.56724 81.9544 6.23052 81.9544 4.21982ZM76.7789 6.38403H76.0108V2.37013H76.7789C78.3674 2.37013 79.2399 3.04036 79.2399 4.32466C79.2921 5.66138 78.4196 6.38403 76.7789 6.38403Z" fill="black"/>
<path d="M44.2346 13.9978C48.0834 13.9978 51.2035 10.8647 51.2035 6.99972C51.2035 3.13476 48.0834 0.00158691 44.2346 0.00158691C40.3857 0.00158691 37.2656 3.13476 37.2656 6.99972C37.2656 10.8647 40.3857 13.9978 44.2346 13.9978Z" fill="url(#paint0_linear_1810_35476)"/>
<path opacity="0.65" d="M44.2346 14.0016C48.0826 14.0016 51.2035 10.8676 51.2035 7.00346C51.2035 3.13932 48.0863 0.00158691 44.2346 0.00158691C40.3828 0.00158691 37.2656 3.13558 37.2656 6.99972C37.2656 10.8639 40.3865 14.0016 44.2346 14.0016Z" fill="url(#paint1_radial_1810_35476)"/>
<path d="M83.7495 0.877766C83.7495 0.619408 83.5966 0.518311 83.2871 0.518311H82.877V1.75394H83.1827V1.23722L83.5407 1.70152H83.8986L83.4885 1.18854C83.6488 1.1848 83.7495 1.03128 83.7495 0.877766ZM83.2386 1.03128L83.1864 0.724248H83.2386C83.3915 0.724248 83.4437 0.77667 83.4437 0.877766C83.4437 0.978863 83.3393 1.03128 83.2386 1.03128Z" fill="black"/>
<path d="M83.3393 0.00158691C82.7241 0.00158691 82.2617 0.465883 82.2617 1.0837C82.2617 1.70151 82.7241 2.1658 83.3393 2.1658C83.9023 2.1658 84.4169 1.70151 84.4169 1.0837C84.3647 0.514559 83.9023 0.00158691 83.3393 0.00158691ZM83.3393 1.95612C82.877 1.95612 82.4668 1.54425 82.4668 1.07995C82.4668 0.566978 82.8248 0.203781 83.3393 0.203781C83.8017 0.203781 84.1596 0.615654 84.1596 1.07995C84.1596 1.59667 83.8017 1.95612 83.3393 1.95612Z" fill="black"/>
</g>
<defs>
<linearGradient id="paint0_linear_1810_35476" x1="47.8032" y1="12.6102" x2="42.9489" y2="5.04151" gradientUnits="userSpaceOnUse">
<stop stop-color="#F9A020"/>
<stop offset="0.2041" stop-color="#F99D20"/>
<stop offset="0.4348" stop-color="#F79320"/>
<stop offset="0.6196" stop-color="#F68820"/>
<stop offset="0.7969" stop-color="#F57E20"/>
<stop offset="1" stop-color="#F47521"/>
</linearGradient>
<radialGradient id="paint1_radial_1810_35476" cx="0" cy="0" r="1" gradientUnits="userSpaceOnUse" gradientTransform="translate(47.0115 12.0784) rotate(-117.709) scale(12.3129 9.52765)">
<stop stop-color="#FF932C"/>
<stop offset="0.5677" stop-color="#E86D20"/>
<stop offset="0.8604" stop-color="#E85718" stop-opacity="0.8653"/>
<stop offset="1" stop-color="#640000"/>
</radialGradient>
<clipPath id="clip0_1810_35476">
<rect width="84" height="14" fill="white" transform="translate(0.416016)"/>
</clipPath>
</defs>
</svg>
