<svg width="88" height="72" viewBox="0 0 88 72" fill="none" xmlns="http://www.w3.org/2000/svg">
<g opacity="0.12">
<path d="M68.9197 72C65.8722 72 63.0896 71.346 60.5721 70.0381C58.0546 68.7302 55.8683 66.9646 54.0133 64.7411C52.1582 62.5177 50.7007 59.9673 49.6407 57.0899C48.7132 54.0817 48.2494 50.8774 48.2494 47.4768C48.2494 40.6757 49.7069 34.3978 52.622 28.6431C55.6695 22.7575 58.9821 17.7221 62.5596 13.5368C66.7997 8.56676 71.636 4.0545 77.0686 0L82.8324 5.297C81.6399 6.08174 80.1824 7.32425 78.4599 9.02452C76.8698 10.7248 75.3461 12.752 73.8885 15.1063C72.5635 17.3297 71.371 19.6839 70.311 22.1689C69.3835 24.654 68.9197 27.0736 68.9197 29.4278C68.9197 30.9973 69.9135 32.3052 71.901 33.3515C73.8885 34.3978 76.0748 35.7057 78.4599 37.2752C80.8449 38.8447 83.0312 40.8719 85.0187 43.3569C87.0062 45.7112 88 49.0463 88 53.3624C88 55.9782 87.47 58.3978 86.41 60.6213C85.35 62.8447 83.8924 64.8065 82.0374 66.5068C80.3149 68.2071 78.2611 69.5804 75.8761 70.6267C73.6235 71.5422 71.3048 72 68.9197 72Z" fill="#1363DF"/>
<path d="M20.6703 72C17.6228 72 14.8402 71.346 12.3227 70.0381C9.80514 68.7302 7.61886 66.9646 5.76384 64.7411C3.90881 62.5177 2.45129 59.9673 1.39127 57.0899C0.463756 54.0817 0 50.8774 0 47.4768C0 40.6757 1.45752 34.3978 4.37256 28.6431C7.42011 22.7575 10.7327 17.7221 14.3102 13.5368C18.5503 8.56676 23.3866 4.0545 28.8192 0L34.583 5.297C33.3905 6.08174 31.933 7.32425 30.2104 9.02452C28.6204 10.7248 27.0966 12.752 25.6391 15.1063C24.3141 17.3297 23.1216 19.6839 22.0616 22.1689C21.1341 24.654 20.6703 27.0736 20.6703 29.4278C20.6703 30.9973 21.6641 32.3052 23.6516 33.3515C25.6391 34.3978 27.8254 35.7057 30.2104 37.2752C32.5955 38.8447 34.7818 40.8719 36.7693 43.3569C38.7568 45.7112 39.7506 49.0463 39.7506 53.3624C39.7506 55.9782 39.2206 58.3978 38.1606 60.6213C37.1005 62.8447 35.643 64.8065 33.788 66.5068C32.0655 68.2071 30.0117 69.5804 27.6267 70.6267C25.3741 71.5422 23.0553 72 20.6703 72Z" fill="#1363DF"/>
</g>
</svg>
