<svg width="28" height="28" viewBox="0 0 28 28" fill="none" xmlns="http://www.w3.org/2000/svg">
<path d="M8.0966 5.83334C8.09629 6.45218 7.85016 7.04555 7.41236 7.48291C6.97455 7.92028 6.38094 8.16582 5.7621 8.16551C5.14326 8.1652 4.54989 7.91907 4.11252 7.48126C3.67516 7.04346 3.42962 6.44985 3.42993 5.83101C3.43024 5.21217 3.67637 4.6188 4.11417 4.18143C4.55198 3.74407 5.14559 3.49853 5.76443 3.49884C6.38327 3.49915 6.97664 3.74528 7.41401 4.18308C7.85137 4.62089 8.09691 5.2145 8.0966 5.83334ZM8.1666 9.89334H3.49993V24.5H8.1666V9.89334ZM15.5399 9.89334H10.8966V24.5H15.4933V16.835C15.4933 12.565 21.0583 12.1683 21.0583 16.835V24.5H25.6666V15.2483C25.6666 8.05001 17.4299 8.31834 15.4933 11.8533L15.5399 9.89334Z" fill="#1363DF"/>
</svg>
