<svg width="43" height="26" viewBox="0 0 43 26" fill="none" xmlns="http://www.w3.org/2000/svg">
<g clip-path="url(#clip0_1810_35493)">
<path d="M27.1094 2.77942H15.7461V23.2206H27.1094V2.77942Z" fill="#FF5F00"/>
<path d="M16.4679 13C16.4661 11.0314 16.9117 9.08812 17.7711 7.31738C18.6304 5.54665 19.881 3.99483 21.428 2.77941C19.5122 1.272 17.2114 0.334562 14.7885 0.0742466C12.3657 -0.186069 9.91854 0.24123 7.72682 1.30732C5.53509 2.37341 3.68721 4.03528 2.3944 6.10297C1.10159 8.17065 0.416016 10.5607 0.416016 13C0.416016 15.4393 1.10159 17.8294 2.3944 19.897C3.68721 21.9647 5.53509 23.6266 7.72682 24.6927C9.91854 25.7588 12.3657 26.1861 14.7885 25.9258C17.2114 25.6654 19.5122 24.728 21.428 23.2206C19.881 22.0052 18.6305 20.4533 17.7711 18.6826C16.9118 16.9119 16.4661 14.9686 16.4679 13Z" fill="#EB001B"/>
<path d="M42.4391 13C42.4392 15.4392 41.7537 17.8293 40.4609 19.897C39.1682 21.9647 37.3204 23.6265 35.1287 24.6926C32.937 25.7587 30.4899 26.1861 28.0671 25.9258C25.6443 25.6654 23.3435 24.728 21.4277 23.2206C22.9734 22.0039 24.223 20.4519 25.0822 18.6814C25.9414 16.911 26.3878 14.9683 26.3878 13C26.3878 11.0317 25.9414 9.08904 25.0822 7.31858C24.223 5.54812 22.9734 3.99605 21.4277 2.7794C23.3435 1.27199 25.6443 0.334555 28.0671 0.0742432C30.4899 -0.186069 32.937 0.241249 35.1287 1.30735C37.3204 2.37346 39.1682 4.03532 40.4609 6.10301C41.7537 8.17069 42.4392 10.5607 42.4391 13Z" fill="#F79E1B"/>
<path d="M41.2002 21.0556V20.6371H41.3688V20.5519H40.9395V20.6371H41.1081V21.0556H41.2002ZM42.0337 21.0556V20.551H41.9021L41.7507 20.8981L41.5993 20.551H41.4676V21.0556H41.5606V20.675L41.7025 21.0031H41.7989L41.9408 20.6742V21.0556H42.0337Z" fill="#F79E1B"/>
</g>
<defs>
<clipPath id="clip0_1810_35493">
<rect width="42.0234" height="26" fill="white" transform="translate(0.416016)"/>
</clipPath>
</defs>
</svg>
