<svg width="59" height="80" viewBox="0 0 59 80" fill="none" xmlns="http://www.w3.org/2000/svg">
<path opacity="0.08" d="M0.730547 69.33L31.3105 38.2C32.7772 36.5867 33.9872 35.1567 34.9405 33.91C35.8939 32.59 36.5539 31.38 36.9205 30.28C37.3605 29.1067 37.5805 27.8967 37.5805 26.65C37.5805 23.8633 36.6639 21.6633 34.8305 20.05C33.0705 18.4367 30.7239 17.63 27.7905 17.63C25.0039 17.63 22.4739 18.4367 20.2005 20.05C17.9272 21.59 15.5805 24.1933 13.1605 27.86L0.290547 16.42C3.44388 11.2867 7.47721 7.4 12.3905 4.76C17.3039 2.04666 22.9505 0.689998 29.3305 0.689998C34.9772 0.689998 39.8539 1.71666 43.9605 3.77C48.0672 5.82333 51.2205 8.75666 53.4206 12.57C55.6939 16.31 56.8305 20.7467 56.8305 25.88C56.8305 28.96 56.4272 31.82 55.6205 34.46C54.8139 37.0267 53.5306 39.5933 51.7706 42.16C50.0105 44.6533 47.6639 47.2933 44.7305 50.08L24.4905 69.77L0.730547 69.33ZM0.730547 80V69.33L17.1205 63.61H58.4806V80H0.730547Z" fill="#1363DF"/>
</svg>
