<svg width="60" height="80" viewBox="0 0 60 80" fill="none" xmlns="http://www.w3.org/2000/svg">
<path opacity="0.08" d="M27.8465 79.21C22.3465 79.21 17.2865 78.2933 12.6665 76.46C8.04652 74.5533 4.12319 71.8767 0.896524 68.43L13.4365 56.11C14.7565 58.0167 16.6999 59.5933 19.2665 60.84C21.9065 62.0133 24.6565 62.6 27.5165 62.6C29.9365 62.6 32.0632 62.1967 33.8965 61.39C35.8032 60.51 37.2699 59.3 38.2965 57.76C39.3965 56.1467 39.9465 54.24 39.9465 52.04C39.9465 49.84 39.3965 47.97 38.2965 46.43C37.1965 44.8167 35.6199 43.6067 33.5665 42.8C31.5865 41.9933 29.2032 41.59 26.4165 41.59C24.9499 41.59 23.4099 41.7 21.7965 41.92C20.2565 42.0667 19.0099 42.3233 18.0565 42.69L26.6365 31.91C28.9832 31.3233 31.1099 30.8467 33.0165 30.48C34.9965 30.04 36.7565 29.82 38.2965 29.82C42.2565 29.82 45.8132 30.7733 48.9665 32.68C52.1199 34.5133 54.6132 37.1533 56.4465 40.6C58.2799 43.9733 59.1965 47.97 59.1965 52.59C59.1965 57.87 57.9132 62.5267 55.3465 66.56C52.7799 70.52 49.1132 73.6367 44.3465 75.91C39.6532 78.11 34.1532 79.21 27.8465 79.21ZM18.0565 42.69V31.91L36.2065 10.68H57.5465L38.8465 31.91L18.0565 42.69ZM6.28652 16.4V0.00999439H57.5465V10.68L42.6965 16.4H6.28652Z" fill="#1363DF"/>
</svg>
