<svg width="96" height="96" viewBox="0 0 96 96" fill="none" xmlns="http://www.w3.org/2000/svg">
<path d="M48 96C74.5097 96 96 74.5097 96 48C96 21.4903 74.5097 0 48 0C21.4903 0 0 21.4903 0 48C0 74.5097 21.4903 96 48 96Z" fill="#00A507"/>
<path d="M47.9967 91.5277C72.0366 91.5277 91.5248 72.0395 91.5248 47.9997C91.5248 23.9598 72.0366 4.47168 47.9967 4.47168C23.9569 4.47168 4.46875 23.9598 4.46875 47.9997C4.46875 72.0395 23.9569 91.5277 47.9967 91.5277Z" fill="white"/>
<path d="M28.3906 48.591L36.2083 60.9651C37.3067 62.7021 39.7292 62.9844 41.1954 61.5425L67.5951 35.6201" stroke="#00A507" stroke-width="5" stroke-linecap="round" stroke-linejoin="round"/>
</svg>
