<svg width="50" height="16" viewBox="0 0 50 16" fill="none" xmlns="http://www.w3.org/2000/svg">
<g clip-path="url(#clip0_1810_35498)">
<path d="M32.6807 0C29.1717 0 26.0212 1.82588 26.0212 5.17647C26.0212 9.03529 31.5865 9.29882 31.5865 11.2188C31.5865 12.0282 30.6432 12.7624 29.0585 12.7624C26.7946 12.7624 25.0967 11.7459 25.0967 11.7459L24.3799 15.1341C24.3799 15.1341 26.323 16 28.9265 16C32.775 16 35.7935 14.0988 35.7935 10.6729C35.7935 6.60706 30.2093 6.34353 30.2093 4.55529C30.2093 3.91529 30.9828 3.21882 32.5675 3.21882C34.3597 3.21882 35.8313 3.95294 35.8313 3.95294L36.5481 0.677647C36.5293 0.677647 34.9257 0 32.6807 0ZM0.533781 0.244706L0.439453 0.734118C0.439453 0.734118 1.91097 0.997647 3.25042 1.54353C4.96719 2.16471 5.08038 2.52235 5.38223 3.63294L8.53278 15.7365H12.7587L19.2296 0.244706H15.0225L10.8532 10.7859L9.15534 1.84471C9.00442 0.828235 8.21207 0.244706 7.23106 0.244706H0.533781ZM20.9275 0.244706L17.626 15.7365H21.6443L24.927 0.244706H20.9275ZM43.302 0.244706C42.3399 0.244706 41.8305 0.752941 41.4532 1.65647L35.5671 15.7365H39.7742L40.5854 13.3835H45.7168L46.2073 15.7365H49.9238L46.6978 0.244706H43.302ZM43.8491 4.44235L45.0942 10.2588H41.755L43.8491 4.44235Z" fill="#1434CB"/>
</g>
<defs>
<clipPath id="clip0_1810_35498">
<rect width="49.4844" height="16" fill="white" transform="translate(0.439453)"/>
</clipPath>
</defs>
</svg>
