<svg width="28" height="28" viewBox="0 0 28 28" fill="none" xmlns="http://www.w3.org/2000/svg">
<path d="M27.4149 7.26059C27.0929 6.05582 26.1442 5.10712 24.9394 4.78514C22.7559 4.19999 14 4.19999 14 4.19999C14 4.19999 5.24416 4.19999 3.06057 4.78514C1.85589 5.10712 0.907066 6.05582 0.585093 7.26059C0 9.44414 0 14 0 14C0 14 0 18.5558 0.585093 20.7395C0.907066 21.9442 1.85589 22.8928 3.06057 23.215C5.24416 23.8 14 23.8 14 23.8C14 23.8 22.7559 23.8 24.9394 23.215C26.1442 22.8928 27.0929 21.9442 27.4149 20.7395C28 18.5558 28 14 28 14C28 14 28 9.44414 27.4149 7.26059Z" fill="#1363DF"/>
<path d="M11.1365 18.1364L18.4547 14.0002L11.1365 9.86365V18.1364Z" fill="#EDF4FF"/>
</svg>
